<?xml version="1.0" encoding="utf-8"?>
<!-- Generator: Adobe Illustrator 23.0.1, SVG Export Plug-In . SVG Version: 6.00 Build 0)  -->
<svg version="1.1" id="Layer_1" xmlns="http://www.w3.org/2000/svg" xmlns:xlink="http://www.w3.org/1999/xlink" x="0px" y="0px"
	 viewBox="0 0 175.2 5.3" style="enable-background:new 0 0 175.2 5.3;" xml:space="preserve">
<style type="text/css">
	.st0{fill:#123F3F;}
</style>
<g>
	<path class="st0" d="M85.8,3.1c0,0.3,0,0.6-0.1,0.9c-0.2,0.4-0.4,0.7-0.9,0.9c-0.3,0.1-0.5,0.2-0.9,0.3c-0.1,0-0.2,0-0.4,0
		c-0.1,0-0.2-0.1-0.2-0.2c0-0.2-0.1-0.4-0.1-0.7c-0.1-0.9-0.1-1.8-0.1-2.6c0-0.4,0-0.7,0-1c0-0.1,0-0.3,0.2-0.4
		c0.1-0.1,0.3-0.1,0.4-0.1c0.3,0.1,0.5,0.1,0.7,0.2c0.5,0.2,0.7,0.5,1,0.9C85.6,2,85.8,2.4,85.8,3.1z M84.7,1.6
		c-0.2-0.3-0.5-0.5-0.8-0.6c-0.1,0-0.1,0-0.2,0c0,0,0,0.1,0,0.2c0,1.1,0,2.3,0.1,3.4c0.2,0,0.4-0.1,0.5-0.1c0.4-0.1,0.5-0.4,0.6-0.7
		C85,3.7,85,3.5,85,3.3C85.2,2.6,85.1,2,84.7,1.6z"/>
	<path class="st0" d="M89,5c-0.1,0.1-0.2,0.1-0.3,0.1c-0.1,0-0.3,0-0.4,0c-0.3,0-0.5,0-0.8,0c0,0-0.1,0-0.2,0C87.1,5.1,87,5,87,4.8
		s-0.1-0.5-0.1-0.7c0-0.6-0.1-1.1-0.1-1.8c0-0.4,0-0.9,0-1.6V0.6c0-0.2,0.2-0.3,0.4-0.4c0.1,0,0.2,0,0.3,0c0.4,0,0.6,0,1,0
		c0.1,0,0.3,0,0.4,0s0.1,0,0.2,0.1c0.2,0.1,0.2,0.3,0,0.5c-0.1,0.1-0.2,0.1-0.4,0.1c-0.3,0-0.5,0-0.8,0c-0.3,0-0.3,0-0.3,0.3
		c0,0.4,0,0.8,0,1.1c0,0.1,0,0.1,0.2,0.1c0.2,0,0.4,0,0.5,0c0.1,0,0.2,0,0.3,0.1c0.2,0.1,0.2,0.3,0,0.5c-0.1,0-0.2,0.1-0.2,0.1
		c-0.2,0-0.3,0-0.5,0c-0.1,0-0.2,0-0.2,0c-0.1,0-0.1,0-0.1,0.1v0.1c0,0.4,0,0.9,0.1,1.2c0,0.1,0,0.2,0.2,0.2c0.3,0,0.5,0,0.8,0
		c0.1,0,0.2,0,0.3,0c0.1,0,0.2,0,0.2,0.1C89,4.8,89,4.9,89,5z"/>
	<path class="st0" d="M92.7,2c0,0.1,0,0.2,0,0.3c0,0.1-0.2,0.2-0.3,0.2c-0.2,0-0.3-0.1-0.3-0.3c0-0.1,0-0.1,0-0.2c0-0.2,0-0.4,0-0.6
		S92,1.1,92,0.9c-0.1-0.1-0.1-0.2-0.2-0.2c-0.2-0.2-0.5-0.2-0.7,0.1c-0.4,0.4-0.4,0.8,0,1.2c0.1,0.2,0.1,0.3,0.2,0.3
		c0.2,0.2,0.4,0.5,0.5,0.7c0.2,0.2,0.5,0.5,0.5,0.7c0.1,0.1,0.2,0.2,0.2,0.4c0.2,0.6-0.3,1-0.8,1c-0.2,0-0.5-0.1-0.6-0.2
		c-0.1-0.1-0.5-0.3-0.6-0.5c-0.2,0-0.2-0.1-0.3-0.2c0-0.1,0-0.2,0.1-0.3c0.1-0.1,0.2-0.1,0.3-0.1c0.1,0,0.2,0.1,0.3,0.1
		C91,4,91.1,4.1,91.2,4.2c0,0.1,0,0.1,0.1,0.1c0.1,0.1,0.2,0.1,0.3,0.1c0.2,0,0.3-0.1,0.2-0.3c0-0.1-0.1-0.2-0.1-0.2
		c-0.1-0.2-0.2-0.4-0.4-0.5c-0.3-0.3-0.5-0.6-0.7-0.8c-0.3-0.2-0.4-0.5-0.5-0.8c-0.2-0.6,0-1,0.5-1.5C91,0,91.3-0.1,91.7,0.1
		c0.3,0.1,0.5,0.3,0.7,0.6c0.1,0.2,0.2,0.4,0.2,0.5C92.7,1.7,92.7,1.9,92.7,2z"/>
	<path class="st0" d="M97.6,4.9c-0.1,0-0.1,0.1-0.2,0.1c-0.3,0.1-0.5,0.2-0.7,0.2c-0.3,0-0.6-0.1-0.9-0.2c-0.4-0.2-0.6-0.5-0.7-0.9
		c-0.1-0.2-0.2-0.4-0.2-0.6c-0.1-0.8-0.1-1.5,0.2-2.3c0.1-0.2,0.2-0.5,0.4-0.7C96-0.1,96.7,0,97.1,0.4c0,0.2,0.1,0.3,0.2,0.4
		c0.2,0.4,0.3,0.9,0.4,1.3c0,0.1,0,0.1,0,0.2c0,0.1-0.2,0.2-0.3,0.2c-0.1,0-0.3-0.1-0.3-0.2c0-0.1,0-0.1,0-0.2
		c0-0.3-0.1-0.7-0.2-0.9c-0.1-0.1-0.1-0.3-0.3-0.4c-0.1-0.1-0.1-0.1-0.2-0.1c0,0-0.2,0-0.3,0.1c-0.3,0.2-0.3,0.3-0.4,0.3
		c-0.1,0.1-0.2,0.3-0.2,0.4c-0.1,0.4-0.2,0.8-0.2,1.1s0,0.7,0.1,0.9c0.1,0.3,0.2,0.5,0.4,0.7c0.3,0.2,0.6,0.3,1,0.2
		c0.1,0,0.2,0,0.3-0.1c0.1,0,0.2,0,0.3,0s0.2,0.1,0.2,0.2C97.6,4.7,97.6,4.8,97.6,4.9z"/>
	<path class="st0" d="M101.4,4c0,0.2-0.1,0.3-0.2,0.5c-0.4,0.8-1.2,0.8-1.8,0.4C99.2,4.7,99,4.4,98.8,4c-0.1-0.4-0.2-0.9-0.2-1.2
		s0.1-0.9,0.2-1.2c0.2-0.5,0.5-0.9,1-1.2c0.1-0.1,0.2-0.1,0.4-0.1c0.4,0,0.7,0.2,0.9,0.5c0.2,0.2,0.3,0.5,0.3,0.7
		c0.1,0.5,0.2,0.9,0.2,1.3C101.5,3.2,101.5,3.7,101.4,4z M101,2.8c0-0.2,0-0.4,0-0.6c0-0.1,0-0.3-0.1-0.4c0-0.2-0.1-0.4-0.2-0.6
		c-0.1-0.1-0.1-0.3-0.3-0.3c-0.1,0-0.2,0-0.3,0C99.9,1,99.8,1,99.7,1.2c-0.2,0.2-0.3,0.4-0.4,0.6c-0.2,0.6-0.3,1.3-0.1,1.9
		c0.1,0.3,0.2,0.5,0.4,0.7c0.1,0.1,0.2,0.1,0.3,0.2c0.3,0.1,0.5,0.1,0.6-0.2c0.1-0.1,0.1-0.2,0.1-0.2c0-0.1,0.1-0.2,0.1-0.3
		C100.9,3.6,100.9,3.1,101,2.8z"/>
	<path class="st0" d="M105.4,4.9c0,0.1-0.1,0.2-0.3,0.2c-0.1,0-0.2,0-0.2,0c-0.3,0-0.5,0-0.8,0l0,0c-0.2,0-0.4,0-0.5,0s-0.2,0-0.3,0
		c-0.4,0-0.5-0.1-0.5-0.4c0-0.3-0.1-0.7-0.1-0.9c0-0.9-0.1-2-0.1-2.8c0-0.1,0-0.2,0-0.3s0-0.1,0-0.2s0.1-0.2,0.3-0.2
		c0.1,0,0.3,0,0.3,0.2c0.1,0.1,0.1,0.2,0.1,0.3c0,0.3,0,0.7,0,0.9c0,0.8,0.1,1.9,0.2,2.7v0.1c0,0.1,0,0.2,0.2,0.2c0.3,0,0.5,0,0.8,0
		c0.2,0,0.4,0,0.6,0C105.2,4.7,105.3,4.7,105.4,4.9C105.3,4.6,105.4,4.7,105.4,4.9z"/>
	<path class="st0" d="M109,4c0,0.2-0.1,0.3-0.2,0.5c-0.4,0.8-1.2,0.8-1.8,0.4c-0.3-0.2-0.5-0.5-0.6-0.9c-0.1-0.4-0.2-0.9-0.2-1.2
		s0.1-0.9,0.2-1.2c0.2-0.5,0.5-0.9,1-1.2c0.1-0.1,0.2-0.1,0.4-0.1c0.4,0,0.7,0.2,0.9,0.5c0.2,0.2,0.3,0.5,0.3,0.7
		c0.1,0.5,0.2,0.9,0.2,1.3C109.1,3.2,109,3.7,109,4z M108.5,2.8c0-0.2,0-0.4,0-0.6c0-0.1,0-0.3-0.1-0.4c0-0.2-0.1-0.4-0.2-0.6
		c-0.1-0.1-0.1-0.3-0.3-0.3c-0.1,0-0.2,0-0.3,0c-0.1,0-0.2,0-0.3,0.2c-0.2,0.2-0.3,0.4-0.4,0.6c-0.2,0.6-0.3,1.3-0.1,1.9
		c0.1,0.3,0.2,0.5,0.4,0.7c0.1,0.1,0.2,0.1,0.3,0.2c0.3,0.1,0.5,0.1,0.6-0.2c0.1-0.1,0.1-0.2,0.1-0.2c0-0.1,0.1-0.2,0.1-0.3
		C108.5,3.6,108.5,3.1,108.5,2.8z"/>
	<path class="st0" d="M112.9,4.6c0,0.1,0,0.1,0,0.2c0,0.1-0.1,0.3-0.3,0.3c-0.2,0-0.3,0-0.4-0.2c-0.1-0.1-0.1-0.2-0.2-0.3
		c-0.2-0.5-0.5-1-0.6-1.5c-0.2-0.3-0.3-0.7-0.5-0.9c-0.1-0.1-0.1-0.3-0.2-0.4l-0.2-0.3v0.3c0,0.6,0,1.2,0,1.8c0,0.3,0,0.6,0,0.9
		c0,0.1,0,0.2,0,0.3c0,0.1,0,0.1-0.1,0.2c-0.1,0.2-0.4,0.2-0.5,0c0.1,0,0-0.1,0-0.2c0-0.3,0-0.5,0-0.8c0-0.9,0-1.7,0-2.6
		c0-0.2,0-0.6,0-0.7s0-0.1,0-0.2s0.2-0.2,0.3-0.2c0.2,0,0.3,0.1,0.4,0.3c0,0.1,0.1,0.1,0.1,0.2c0.5,0.7,0.8,1.6,1.2,2.4
		c0.1,0.1,0.1,0.2,0.2,0.4c0,0,0.1,0.2,0.1,0.3c0-0.1,0-0.3,0-0.3c0-0.7-0.1-1.7-0.1-2.4c0-0.1,0-0.2,0-0.3c0-0.1,0-0.1,0-0.2
		c0.1-0.1,0.2-0.2,0.3-0.2c0.1,0,0.2,0.1,0.3,0.2c0,0.1,0,0.2,0,0.3c0,0.6,0,1.6,0.1,2.2c0,0.2,0,0.5,0,0.7
		C113,3.8,113,4.4,112.9,4.6z"/>
	<path class="st0" d="M116.9,4.6c0,0.1,0,0.1,0,0.2c0,0.1-0.1,0.3-0.3,0.3s-0.3,0-0.4-0.2c-0.1-0.1-0.1-0.2-0.2-0.3
		c-0.2-0.5-0.5-1-0.6-1.5c-0.2-0.3-0.3-0.7-0.5-0.9c-0.1-0.1-0.1-0.3-0.2-0.4l-0.2-0.3v0.3c0,0.6,0,1.2,0,1.8c0,0.3,0,0.6,0,0.9
		c0,0.1,0,0.2,0,0.3c0,0.1,0,0.1-0.1,0.2c-0.1,0.2-0.4,0.2-0.5,0c-0.1-0.1-0.1-0.2-0.1-0.3c0-0.3,0-0.5,0-0.8c0-0.9,0-1.7,0-2.6
		c0-0.2,0-0.6,0-0.7s0-0.1,0-0.2s0.2-0.2,0.3-0.2c0.2,0,0.3,0.1,0.4,0.3c0,0.1,0.1,0.1,0.1,0.2c0.5,0.7,0.8,1.6,1.2,2.4
		c0.1,0.1,0.1,0.2,0.2,0.4c0,0,0.1,0.2,0.1,0.3c0-0.1,0-0.3,0-0.3c0-0.7-0.1-1.7-0.1-2.4c0-0.1,0-0.2,0-0.3c0-0.1,0-0.1,0-0.2
		c0.1-0.1,0.2-0.2,0.3-0.2c0.1,0,0.2,0.1,0.3,0.2c0,0.1,0,0.2,0,0.3c0,0.6,0,1.6,0.1,2.2c0,0.2,0,0.5,0,0.7
		C117,3.8,117,4.4,116.9,4.6z"/>
	<path class="st0" d="M120.3,5c-0.1,0.1-0.2,0.1-0.3,0.1c-0.1,0-0.3,0-0.4,0c-0.3,0-0.5,0-0.8,0c0,0-0.1,0-0.2,0
		c-0.3,0-0.4-0.1-0.4-0.3s-0.1-0.5-0.1-0.7c0-0.6-0.1-1.1-0.1-1.8c0-0.4,0-0.9,0-1.6V0.6c0-0.2,0.2-0.3,0.4-0.4c0.1,0,0.2,0,0.3,0
		c0.4,0,0.6,0,1,0c0.1,0,0.3,0,0.4,0s0.1,0,0.2,0.1c0.2,0.1,0.2,0.3,0,0.5c-0.1,0.1-0.2,0.1-0.4,0.1c-0.3,0-0.5,0-0.8,0
		c-0.3,0-0.3,0-0.3,0.3c0,0.4,0,0.8,0,1.1c0,0.1,0,0.1,0.2,0.1s0.4,0,0.5,0s0.2,0,0.3,0.1c0.2,0.1,0.2,0.3,0,0.5
		c-0.1,0-0.2,0.1-0.2,0.1c-0.2,0-0.3,0-0.5,0c-0.1,0-0.2,0-0.2,0c-0.1,0-0.1,0-0.1,0.1v0.1c0,0.4,0,0.9,0.1,1.2c0,0.1,0,0.2,0.2,0.2
		c0.3,0,0.5,0,0.8,0c0.1,0,0.2,0,0.3,0c0.1,0,0.2,0,0.2,0.1C120.3,4.8,120.3,4.9,120.3,5z"/>
	<path class="st0" d="M124,2c0,0.1,0,0.2,0,0.3c0,0.1-0.2,0.2-0.3,0.2c-0.2,0-0.3-0.1-0.3-0.3c0-0.1,0-0.1,0-0.2c0-0.2,0-0.4,0-0.6
		s-0.1-0.3-0.1-0.5c-0.1-0.1-0.1-0.2-0.2-0.2c-0.2-0.2-0.5-0.2-0.7,0.1c-0.4,0.4-0.4,0.8,0,1.2c0.1,0.1,0.1,0.2,0.2,0.2
		c0.2,0.2,0.4,0.5,0.5,0.7c0.2,0.2,0.5,0.5,0.5,0.7c0.1,0.1,0.2,0.2,0.2,0.4c0.2,0.6-0.3,1-0.8,1c-0.2,0-0.5-0.1-0.6-0.2
		c-0.1-0.1-0.5-0.3-0.6-0.5c-0.1-0.1-0.1-0.1-0.1-0.2c0-0.1,0-0.2,0.1-0.3c0.1-0.1,0.2-0.1,0.3-0.1c0.1,0,0.2,0.1,0.3,0.1
		c0.1,0.1,0.2,0.2,0.3,0.3c0.1,0.1,0.1,0.1,0.2,0.1c0.1,0.1,0.2,0.1,0.3,0.1c0.2,0,0.3-0.1,0.2-0.3c0-0.1-0.1-0.2-0.1-0.2
		c-0.1-0.2-0.2-0.4-0.4-0.5c-0.3-0.3-0.5-0.6-0.7-0.8c-0.3-0.2-0.4-0.5-0.5-0.8c-0.2-0.6,0-1,0.5-1.5c0.4-0.3,0.7-0.4,1.1-0.2
		c0.3,0.1,0.5,0.3,0.7,0.6c0.1,0.2,0.2,0.4,0.2,0.5C124,1.7,124,1.9,124,2z"/>
</g>
<g id="LFgM1P.tif">
	<path class="st0" d="M12.1,3.2c0.6,0,1.1,0,1.7,0c4.3,0,8.7-0.1,13-0.1c2.8,0,5.6,0,8.3-0.1c3.3-0.1,6.5-0.2,9.8-0.3
		c0.5,0,0.8,0,0.9,0.1c0.1,0.1-0.1,0.2-0.6,0.3c-2.4,0.2-4.8,0.4-7.3,0.5c-4.4,0.2-8.8,0.2-13.3,0.3c-3.4,0-6.9,0-10.3,0
		c-0.5,0-1.1,0-1.7,0C12.8,3.9,12.9,4,13,4c1.2,0.3,2.3,0.6,3.3,0.9c0.4,0.1,0.4,0.2,0.2,0.4c-0.3,0.1-0.7,0.2-1.3,0.1
		c-1.5-0.1-3-0.2-4.4-0.4C7.3,4.6,3.9,4.2,0.6,3.7c-0.8-0.1-0.8-0.4,0-0.5c3.9-0.7,8.2-1.3,12.6-1.6c0.5,0,1-0.1,1.5-0.1
		c0.4,0,0.7,0,0.9,0.1s0.2,0.2-0.1,0.3c-0.8,0.3-1.5,0.5-2.3,0.8C12.8,2.9,12.5,3,12.1,3.2L12.1,3.2z M12.4,2.3
		c-2,0.1-7.8,0.8-9.4,1.1c3.2,0.5,6.6,0.9,10.1,1.2c-0.8-0.2-1.5-0.4-2.3-0.7c-0.2,0-0.4-0.1-0.7-0.1c-0.5,0-0.9-0.1-0.7-0.3
		c0-0.1,0.2-0.3,0.6-0.4C10.7,2.8,11.5,2.6,12.4,2.3z"/>
</g>
<g id="LFgM1P.tif_1_">
	<path class="st0" d="M163,2.1c-0.6,0-1.1,0-1.7,0c-4.3,0-8.7,0.1-13,0.1c-2.8,0-5.6,0.1-8.3,0.1c-3.3,0.1-6.5,0.2-9.8,0.4
		c-0.5,0-0.8,0-0.9-0.1s0.1-0.2,0.6-0.3c2.4-0.2,4.8-0.4,7.3-0.5c4.4-0.2,8.8-0.3,13.3-0.3c3.4,0,6.9,0,10.3,0c0.5,0,1.1,0,1.7,0
		c-0.2,0-0.3-0.1-0.4-0.1c-1.2-0.3-2.3-0.6-3.3-0.9c-0.4-0.1-0.4-0.2-0.2-0.4s0.7-0.2,1.3-0.1c1.5,0.1,3,0.2,4.4,0.3
		c3.6,0.3,6.9,0.8,10.3,1.3c0.8,0.1,0.8,0.4,0,0.5c-3.9,0.7-8.2,1.3-12.6,1.6c-0.5,0-1,0.1-1.5,0.1c-0.4,0-0.7,0-0.9-0.1
		s-0.2-0.2,0.1-0.3c0.8-0.3,1.5-0.5,2.3-0.8C162.4,2.4,162.7,2.3,163,2.1L163,2.1z M162.8,3c1.9-0.1,7.8-0.8,9.3-1.1
		c-3.2-0.5-6.6-0.9-10.1-1.1c0.8,0.2,1.5,0.4,2.3,0.6c0.2,0,0.4,0.1,0.7,0.1c0.5,0,0.9,0.1,0.7,0.3c-0.1,0.2-0.3,0.3-0.6,0.4
		C164.5,2.5,163.7,2.8,162.8,3z"/>
</g>
<g>
	<path class="st0" d="M48.6,0.7c-0.1,0.1-0.3,0.1-0.4,0.1c-0.2,0-0.3,0-0.5,0s-0.2,0-0.2,0.2s0,0.4,0,0.6c0,0.4,0,0.6,0,1
		c0,0.6,0,1.2,0.1,1.8c0,0.1,0,0.3,0,0.4c0,0.1-0.1,0.2-0.2,0.2c-0.1,0-0.2,0-0.3-0.1C47,4.8,47,4.7,47,4.6c0-0.6-0.1-1.2-0.1-1.8
		c0-0.5,0-1,0-1.5c0-0.1,0-0.1,0-0.2c0-0.1,0-0.1-0.1-0.1c-0.2,0-0.4,0-0.5,0h-0.1c-0.1,0-0.3-0.1-0.3-0.2s0-0.2,0.1-0.3
		c0.1,0,0.1-0.1,0.2-0.1c0.1,0,0.2,0,0.4,0c0.5,0,1.1,0,1.6,0c0.1,0,0.2,0,0.4,0c0.1,0,0.1,0,0.2,0C48.8,0.4,48.8,0.6,48.6,0.7z"/>
	<path class="st0" d="M52.8,4.9c-0.1,0.1-0.2,0.1-0.3,0c-0.1,0-0.2-0.1-0.3-0.2C52,4.5,51.7,4.2,51.5,4c-0.2-0.2-0.5-0.4-0.8-0.6
		c0,0-0.1-0.1-0.2,0c0,0.2,0,0.4,0,0.6c0,0.2,0,0.4,0,0.6c0,0.1,0,0.1,0,0.2c0,0.1-0.1,0.2-0.2,0.2S50.1,5,50,4.9
		c0-0.1-0.1-0.1-0.1-0.2s0-0.2,0-0.4c0-0.7-0.1-1.4,0-2.1c0-0.4,0-0.9,0-1.4c0-0.1,0-0.1,0-0.2c0-0.2,0.2-0.3,0.4-0.3
		c0.1,0,0.2,0,0.3,0c0.5,0.1,0.9,0.3,1.2,0.6c0.4,0.4,0.5,0.8,0.4,1.3c-0.1,0.4-0.3,0.6-0.7,0.8c-0.1,0-0.2,0-0.3,0.1
		c0,0.1,0.1,0.1,0.1,0.1c0.5,0.4,0.9,0.8,1.3,1.2c0.1,0.1,0.1,0.1,0.2,0.2C52.9,4.8,52.9,4.9,52.8,4.9z M51.2,2.6
		c0.2-0.1,0.4-0.2,0.4-0.4c0.1-0.2,0-0.5-0.2-0.7c-0.2-0.2-0.5-0.4-0.8-0.5c-0.1,0-0.1,0-0.1,0.1v0.7c0,0.1,0,0.4,0,0.5
		c0,0.5-0.1,0.4,0.5,0.3C51.1,2.6,51.2,2.6,51.2,2.6z"/>
	<path class="st0" d="M56.7,4.9C56.6,5,56.4,5.1,56.3,5c-0.1,0-0.1-0.1-0.2-0.2c0-0.1-0.1-0.3-0.1-0.4c-0.1-0.3-0.2-0.7-0.2-1
		c-0.1-0.2-0.1-0.2-0.3-0.2c-0.2,0-0.5,0-0.7,0c-0.1,0-0.1,0-0.1,0.1s-0.1,0.4-0.1,0.5c-0.1,0.3-0.1,0.5-0.2,0.8v0.1
		c-0.1,0.2-0.2,0.2-0.4,0.2c-0.2,0-0.2-0.2-0.2-0.3c0,0,0,0,0-0.1c0.2-0.8,0.3-1.8,0.5-2.3c0.1-0.5,0.2-0.9,0.3-1.3
		c0-0.1,0.1-0.2,0.1-0.3s0.1-0.1,0.1-0.2c0.2-0.2,0.4-0.2,0.6,0c0.1,0.1,0.2,0.2,0.2,0.3c0.1,0.2,0.2,0.5,0.3,0.7
		c0.3,0.8,0.5,2,0.8,3c0,0.1,0,0.2,0,0.3C56.8,4.8,56.8,4.8,56.7,4.9z M55.6,2.6c0-0.2-0.2-1.1-0.4-1.3c-0.1,0.3-0.3,1.1-0.3,1.3
		C55.1,2.6,55.3,2.6,55.6,2.6z"/>
	<path class="st0" d="M61.1,0.8c-0.1,0.4-0.2,0.7-0.3,1.1c-0.1,0.5-0.3,1.5-0.4,2c-0.1,0.3-0.2,0.5-0.4,0.8
		c-0.1,0.1-0.1,0.2-0.2,0.3c-0.2,0.2-0.5,0.2-0.7,0C59,4.9,59,4.8,58.9,4.7c-0.2-0.5-0.3-1-0.5-1.5S58.1,1.7,58,1.1
		c0-0.1,0-0.2,0-0.3c0-0.1,0-0.1,0-0.2s0.1-0.2,0.2-0.2c0.1,0,0.2,0,0.3,0.1c0.1,0.1,0.1,0.1,0.1,0.2C58.8,1.6,59,3.1,59.4,4
		c0,0,0,0.1,0,0.2c0.1-0.1,0.1-0.1,0.1-0.2c0.2-0.3,0.3-0.7,0.4-1c0.2-0.6,0.4-1.7,0.5-2.3c0-0.1,0-0.1,0.1-0.2
		c0.1-0.1,0.2-0.2,0.3-0.1c0.1,0,0.2,0.1,0.3,0.2C61.1,0.6,61.1,0.7,61.1,0.8z"/>
	<path class="st0" d="M64.4,4.9C64.3,5,64.2,5,64.1,5s-0.2,0-0.4,0c-0.3,0-0.6,0-0.9,0h-0.1c-0.3,0-0.4-0.1-0.4-0.3
		c0-0.2-0.1-0.4-0.1-0.6c0-0.5-0.1-1.1-0.1-1.8c0-0.4,0-1,0-1.5V0.7c0-0.2,0.2-0.3,0.4-0.3c0.1,0,0.2,0,0.3,0c0.3,0,0.7,0,1,0
		c0.1,0,0.2,0,0.4,0c0.1,0,0.1,0,0.2,0c0.2,0.1,0.2,0.3,0,0.4c-0.1,0.1-0.2,0.1-0.4,0.1c-0.3,0-0.6,0-0.9,0c-0.3,0-0.3,0-0.3,0.2
		c0,0.4,0,0.7,0,1.1c0,0.1,0,0.1,0.2,0.1s0.4,0,0.6,0c0.1,0,0.2,0,0.3,0.1c0.2,0.1,0.2,0.3,0,0.4c-0.1,0-0.2,0.1-0.2,0.1
		c-0.2,0-0.3,0-0.5,0c-0.1,0-0.1,0-0.2,0S63,2.9,63,3v0.1c0,0.4,0,0.8,0.1,1.2c0,0.1,0,0.2,0.2,0.2c0.3,0,0.5,0,0.8,0
		c0.1,0,0.2,0,0.3,0c0.1,0,0.1,0,0.2,0.1C64.5,4.6,64.5,4.8,64.4,4.9z"/>
	<path class="st0" d="M68.5,4.9c-0.1,0.1-0.2,0.1-0.3,0c-0.1,0-0.2-0.1-0.3-0.2c-0.2-0.2-0.5-0.5-0.7-0.7c-0.2-0.2-0.5-0.4-0.8-0.6
		c0,0-0.1-0.1-0.2,0c0,0.2,0,0.4,0,0.6c0,0.2,0,0.4,0,0.6c0.1,0.1,0.1,0.1,0.1,0.2c0,0.1-0.1,0.2-0.2,0.2s-0.2,0-0.3-0.1
		c0-0.1-0.1-0.1-0.1-0.2s0-0.2,0-0.4c0-0.7-0.1-1.4,0-2.1c0-0.4,0-0.9,0-1.4c0-0.1,0-0.1,0-0.2c0-0.2,0.2-0.3,0.4-0.3
		c0.1,0,0.2,0,0.3,0c0.5,0.1,0.9,0.3,1.2,0.6C68,1.3,68.1,1.7,68,2.2c-0.1,0.4-0.3,0.6-0.7,0.8c-0.1,0-0.2,0-0.3,0.1
		c0,0.1,0.1,0.1,0.1,0.1C67.6,3.6,68,4,68.4,4.4c0.1,0.1,0.1,0.1,0.2,0.2C68.7,4.8,68.6,4.9,68.5,4.9z M67,2.6
		c0.2-0.1,0.4-0.2,0.4-0.4c0.1-0.2,0-0.5-0.2-0.7C67,1.3,66.7,1.1,66.4,1c-0.1,0-0.1,0-0.1,0.1v0.7c0,0.1,0,0.4,0,0.5
		c0,0.5-0.1,0.4,0.5,0.3C66.8,2.6,66.9,2.6,67,2.6z"/>
	<path class="st0" d="M72.2,2.1c0,0.1,0,0.2,0,0.3c0,0.1-0.2,0.2-0.3,0.2c-0.2,0-0.3-0.1-0.3-0.2c0-0.1,0-0.1,0-0.2
		c0-0.2,0-0.3,0-0.5c0-0.1-0.1-0.3-0.1-0.4c0-0.1-0.1-0.2-0.2-0.2c-0.2-0.2-0.5-0.2-0.8,0.1c-0.3,0.4-0.3,0.8,0,1.2
		c0.1,0.1,0.1,0.1,0.2,0.2C70.9,2.8,71,3,71.3,3.2c0,0,0.3,0.3,0.4,0.5c0.1,0.1,0.2,0.2,0.2,0.3c0.2,0.5-0.2,1-0.9,1
		c-0.2,0-0.4-0.1-0.6-0.2c-0.2-0.1-0.4-0.3-0.6-0.5c-0.1-0.1-0.1-0.1-0.1-0.2c0-0.1,0-0.2,0.1-0.2c0.1-0.1,0.2-0.1,0.3-0.1
		c0.1,0,0.2,0.1,0.3,0.1c0.1,0.1,0.2,0.2,0.3,0.2c0.1,0,0.1,0.1,0.2,0.1c0.1,0.1,0.2,0.1,0.3,0.1c0.1,0.1,0.1,0,0.1-0.1
		c0-0.1-0.1-0.1-0.1-0.2c-0.1-0.2-0.2-0.3-0.4-0.5c-0.2-0.2-0.5-0.5-0.7-0.7c-0.2-0.2-0.4-0.5-0.5-0.7c-0.2-0.6,0-1,0.5-1.4
		c0.3-0.3,0.7-0.3,1.2-0.2C71.6,0.6,71.8,0.8,72,1c0.1,0.2,0.2,0.3,0.2,0.5C72.2,1.6,72.2,1.8,72.2,2.1z"/>
	<path class="st0" d="M75.6,4.9C75.5,5,75.4,5,75.3,5c-0.1,0-0.2,0-0.4,0c-0.3,0-0.6,0-0.9,0h-0.1c-0.2,0-0.4-0.1-0.4-0.3
		s-0.1-0.4-0.1-0.6c0-0.5-0.1-1.1-0.1-1.8c0-0.4,0-1,0-1.5c0-0.1,0-0.1,0-0.1c0-0.2,0.2-0.3,0.4-0.3c0.1,0,0.2,0,0.3,0
		c0.3,0,0.7,0,1,0c0.1,0,0.2,0,0.4,0c0.1,0,0.1,0,0.2,0c0.2,0.1,0.2,0.3,0,0.4c-0.1,0.1-0.2,0.1-0.4,0.1c-0.3,0-0.6,0-0.9,0
		c-0.3,0-0.3,0-0.3,0.2c0,0.4,0,0.7,0,1.1c0,0.1,0,0.1,0.2,0.1s0.4,0,0.6,0c0.1,0,0.2,0,0.3,0.1c0.2,0.1,0.2,0.3,0,0.4
		c-0.1,0-0.2,0.1-0.2,0.1c-0.2,0-0.3,0-0.5,0c-0.1,0-0.1,0-0.2,0s-0.1,0-0.1,0.1v0.1c0,0.4,0,0.8,0.1,1.2c0,0.1,0,0.2,0.2,0.2
		c0.3,0,0.5,0,0.8,0c0.1,0,0.2,0,0.3,0s0.1,0,0.2,0.1C75.7,4.6,75.7,4.8,75.6,4.9z M74.3,0L74.3,0"/>
	<path class="st0" d="M79.1,4.9C79,5,78.9,5,78.8,5c-0.1,0-0.2,0-0.4,0c-0.3,0-0.6,0-0.9,0h-0.1C77.2,5,77,4.9,77,4.7
		s-0.1-0.4-0.1-0.6c0-0.5-0.1-1.1-0.1-1.8c0-0.4,0-1,0-1.5V0.7c0-0.2,0.2-0.3,0.4-0.3c0.1,0,0.2,0,0.3,0c0.3,0,0.7,0,1,0
		c0.1,0,0.2,0,0.4,0c0.1,0,0.1,0,0.2,0c0.2,0.1,0.2,0.3,0,0.4c-0.1,0.1-0.2,0.1-0.4,0.1c-0.3,0-0.6,0-0.9,0s-0.3,0-0.3,0.2
		c0,0.4,0,0.7,0,1.1c0,0.1,0,0.1,0.2,0.1c0.2,0,0.4,0,0.6,0c0.1,0,0.2,0,0.3,0.1c0.2,0.1,0.2,0.3,0,0.4c-0.1,0-0.2,0.1-0.2,0.1
		c-0.2,0-0.3,0-0.5,0c-0.1,0-0.1,0-0.2,0s-0.1,0-0.1,0.1v0.1c0,0.4,0,0.8,0.1,1.2c0,0.1,0,0.2,0.2,0.2c0.3,0,0.5,0,0.8,0
		c0.1,0,0.2,0,0.3,0c0.1,0,0.1,0,0.2,0.1C79.2,4.6,79.2,4.8,79.1,4.9z"/>
</g>
</svg>
